<svg xmlns="http://www.w3.org/2000/svg" viewBox="0 0 20 20">
  <path d="M17.5007 2.5H4.16732C3.70648 2.5 3.33398 2.8725 3.33398 3.33333V5.49167C3.33398 5.9275 3.51148 6.35583 3.81982 6.66417L8.33398 11.1783V17.5C8.33398 17.7892 8.48398 18.0567 8.72982 18.2092C8.86315 18.2917 9.01482 18.3333 9.16732 18.3333C9.29482 18.3333 9.42232 18.3042 9.53982 18.2458L12.8732 16.5792C13.1557 16.4375 13.334 16.1492 13.334 15.8333V11.1783L17.8482 6.66417C18.1565 6.35583 18.334 5.9275 18.334 5.49167V3.33333C18.334 2.8725 17.9615 2.5 17.5007 2.5ZM11.9115 10.2442C11.7548 10.4 11.6673 10.6117 11.6673 10.8333V15.3183L10.0007 16.1517V10.8333C10.0007 10.6117 9.91315 10.4 9.75648 10.2442L5.00065 5.49167V4.16667H16.6682L16.6698 5.48583L11.9115 10.2442Z" />
</svg>
