<svg xmlns="http://www.w3.org/2000/svg" viewBox="0 0 18 16" >
  <path d="M8.99844 1.82909C8.07844 0.990762 6.9051 0.530762 5.66844 0.530762C4.35344 0.530762 3.10844 1.04993 2.1576 1.99576C0.196771 3.96493 0.197604 7.04493 2.15927 9.00576L8.26927 15.1158C8.41094 15.3649 8.68427 15.5258 8.99844 15.5258C9.26677 15.5258 9.50594 15.3899 9.65844 15.1849L15.8376 9.00576C17.7993 7.0441 17.7993 3.96493 15.8359 1.99243C14.8884 1.04993 13.6434 0.530762 12.3284 0.530762C11.0926 0.530762 9.91844 0.990762 8.99844 1.82909ZM14.6576 3.17076C15.9601 4.47993 15.9609 6.52493 14.6593 7.82743L8.99844 13.4883L3.3376 7.82743C2.03594 6.52493 2.03677 4.47993 3.33594 3.1741C3.96927 2.5441 4.7976 2.19743 5.66844 2.19743C6.53927 2.19743 7.36427 2.5441 7.99261 3.17243L8.40927 3.5891C8.73511 3.91493 9.26177 3.91493 9.5876 3.5891L10.0043 3.17243C11.2643 1.91493 13.3993 1.91826 14.6576 3.17076Z"/>
  <path d="M14.6576 3.17076C15.9601 4.47993 15.9609 6.52493 14.6593 7.82743L8.99844 13.4883L3.3376 7.82743C2.03594 6.52493 2.03677 4.47993 3.33594 3.1741C3.96927 2.5441 4.7976 2.19743 5.66844 2.19743C6.53927 2.19743 7.36427 2.5441 7.99261 3.17243L8.40927 3.5891C8.73511 3.91493 9.26177 3.91493 9.5876 3.5891L10.0043 3.17243C11.2643 1.91493 13.3993 1.91826 14.6576 3.17076Z" />
</svg>
