<svg xmlns="http://www.w3.org/2000/svg" viewBox="0 0 16 16" fill="none">
  <path d="M10.6665 14C13.0178 12.9687 14.6658 10.7273 14.6658 8C14.6658 5.27267 13.0178 3.03133 10.6665 2V3.33333C12.2578 4.25733 13.3325 6.03133 13.3325 8C13.3325 9.96867 12.2578 11.7427 10.6665 12.6667V14Z" fill="white"/>
  <path d="M10.6668 4.66691V11.3336C11.4835 10.6002 12.0002 9.18091 12.0002 8.00025C12.0002 6.81958 11.4835 5.40025 10.6668 4.66691ZM2.66683 11.3336H4.46483L8.29683 13.8882C8.40816 13.9622 8.5375 14.0002 8.66683 14.0002C8.77483 14.0002 8.88283 13.9742 8.9815 13.9216C9.19816 13.8056 9.3335 13.5796 9.3335 13.3336V2.66691C9.3335 2.42091 9.19816 2.19491 8.9815 2.07891C8.7655 1.96225 8.5015 1.97625 8.2975 2.11225L4.46483 4.66691H2.66683C1.9315 4.66691 1.3335 5.26491 1.3335 6.00025V10.0002C1.3335 10.7356 1.9315 11.3336 2.66683 11.3336ZM2.66683 6.00025H4.66683C4.68883 6.00025 4.7075 5.98958 4.72883 5.98758C4.7715 5.98358 4.81216 5.97425 4.85416 5.96225C4.8995 5.94825 4.9415 5.93225 4.98216 5.91025C4.9995 5.90025 5.02016 5.89891 5.03683 5.88825L8.00016 3.91225V12.0882L5.03683 10.1122C5.02016 10.1009 4.9995 10.0989 4.98216 10.0902C4.9415 10.0682 4.90016 10.0516 4.8555 10.0382C4.81283 10.0256 4.7715 10.0169 4.7275 10.0129C4.70616 10.0109 4.68816 10.0002 4.66683 10.0002H2.66683V6.00025Z" fill="white"/>
</svg>
