<svg xmlns="http://www.w3.org/2000/svg" viewBox="0 0 288 288" fill="none">
  <path fill-rule="evenodd" clip-rule="evenodd" d="M136.21 3.46644C140.375 -1.15548 147.625 -1.15548 151.79 3.46644C152.004 3.70319 152.307 3.83606 152.625 3.85514C156.763 4.10331 160.853 4.52889 164.888 5.12431C165.193 5.16936 165.506 5.10362 165.756 4.92235C170.784 1.27193 177.883 2.7662 180.99 8.14683C181.135 8.39786 181.379 8.57395 181.658 8.65075C185.682 9.75636 189.634 11.0348 193.506 12.4776C193.779 12.5794 194.081 12.5797 194.348 12.461C200.015 9.93616 206.66 12.8623 208.574 18.7647C208.665 19.0468 208.872 19.2748 209.135 19.4113C212.806 21.3144 216.382 23.3733 219.854 25.5792C220.117 25.7463 220.433 25.8143 220.738 25.7492C226.799 24.4541 232.698 28.6915 233.336 34.8564C233.369 35.176 233.537 35.4637 233.785 35.6676C236.943 38.2602 239.984 40.9867 242.902 43.8384C243.136 44.067 243.446 44.2059 243.773 44.2052C249.966 44.1921 254.858 49.5615 254.194 55.7192C254.16 56.0377 254.264 56.3533 254.464 56.6033C257.02 59.7957 259.438 63.1014 261.711 66.5116C261.883 66.7694 262.143 66.9584 262.446 67.0219C268.508 68.2901 272.171 74.5589 270.236 80.4412C270.144 80.7218 270.176 81.0266 270.309 81.2905C272.159 84.9709 273.851 88.7436 275.377 92.5996C275.482 92.8658 275.681 93.0862 275.943 93.2016C281.613 95.6983 283.881 102.59 280.76 107.942C280.613 108.193 280.582 108.493 280.655 108.774C281.684 112.738 282.544 116.769 283.226 120.86C283.275 121.156 283.431 121.425 283.674 121.6C288.707 125.222 289.477 132.429 285.306 137.018C285.091 137.255 284.989 137.57 285.003 137.89C285.09 139.916 285.134 141.953 285.134 144C285.134 146.047 285.09 148.084 285.003 150.11C284.989 150.43 285.091 150.745 285.306 150.982C289.477 155.571 288.707 162.778 283.674 166.4C283.431 166.575 283.275 166.844 283.226 167.14C282.544 171.231 281.684 175.262 280.655 179.226C280.582 179.507 280.614 179.807 280.76 180.058C283.881 185.41 281.613 192.302 275.943 194.798C275.681 194.914 275.482 195.134 275.377 195.4C273.851 199.256 272.159 203.029 270.309 206.71C270.176 206.973 270.144 207.278 270.236 207.559C272.171 213.441 268.508 219.71 262.446 220.978C262.143 221.042 261.883 221.231 261.711 221.489C259.438 224.899 257.02 228.204 254.464 231.397C254.264 231.647 254.16 231.962 254.194 232.281C254.858 238.439 249.966 243.808 243.773 243.795C243.446 243.794 243.136 243.933 242.902 244.162C239.984 247.013 236.943 249.74 233.785 252.332C233.537 252.536 233.369 252.824 233.336 253.144C232.698 259.308 226.799 263.546 220.738 262.251C220.433 262.186 220.117 262.254 219.854 262.421C216.381 264.627 212.806 266.686 209.135 268.589C208.872 268.725 208.665 268.953 208.574 269.235C206.66 275.138 200.015 278.064 194.348 275.539C194.081 275.42 193.779 275.421 193.505 275.522C189.634 276.965 185.682 278.244 181.658 279.349C181.379 279.426 181.135 279.602 180.99 279.853C177.882 285.234 170.784 286.728 165.756 283.078C165.506 282.896 165.193 282.831 164.888 282.876C160.853 283.471 156.763 283.897 152.625 284.145C152.307 284.164 152.004 284.297 151.79 284.534C147.625 289.155 140.375 289.155 136.21 284.534C135.996 284.297 135.693 284.164 135.375 284.145C131.237 283.897 127.147 283.471 123.112 282.876C122.807 282.831 122.494 282.896 122.244 283.078C117.216 286.728 110.118 285.234 107.01 279.853C106.865 279.602 106.621 279.426 106.342 279.349C102.318 278.244 98.3658 276.965 94.4945 275.522C94.2212 275.421 93.9189 275.42 93.6525 275.539C87.9846 278.064 81.3403 275.138 79.4265 269.235C79.335 268.953 79.1284 268.725 78.8651 268.589C75.1945 266.686 71.6185 264.627 68.1459 262.421C67.8829 262.254 67.567 262.186 67.2623 262.251C61.2014 263.546 55.3021 259.308 54.6641 253.144C54.6311 252.824 54.4629 252.536 54.2147 252.333C51.0574 249.74 48.0155 247.013 45.0976 244.162C44.8637 243.933 44.5542 243.794 44.2272 243.795C38.0339 243.808 33.142 238.439 33.8059 232.281C33.8403 231.962 33.7359 231.647 33.5358 231.397C30.9802 228.204 28.5615 224.899 26.2886 221.488C26.1167 221.231 25.8568 221.042 25.5536 220.978C19.4925 219.71 15.8289 213.441 17.764 207.559C17.8563 207.278 17.8237 206.974 17.691 206.71C15.841 203.029 14.1488 199.256 12.6231 195.4C12.5178 195.134 12.3188 194.914 12.0569 194.798C6.38731 192.302 4.11901 185.41 7.24005 180.058C7.38645 179.807 7.41797 179.507 7.34492 179.226C6.31544 175.262 5.45563 171.231 4.77363 167.139C4.7244 166.844 4.56917 166.575 4.3261 166.4C-0.707143 162.778 -1.47675 155.571 2.69408 150.982C2.90916 150.746 3.01103 150.43 2.99728 150.11C2.91008 148.084 2.86603 146.047 2.86603 144C2.86603 141.953 2.91008 139.916 2.99728 137.89C3.01103 137.57 2.90916 137.255 2.69408 137.018C-1.47675 132.429 -0.707142 125.222 4.3261 121.6C4.56917 121.425 4.72438 121.156 4.77362 120.861C5.45561 116.769 6.31543 112.738 7.34491 108.774C7.41796 108.492 7.38645 108.193 7.24005 107.942C4.11901 102.59 6.3873 95.6983 12.0569 93.2016C12.3188 93.0862 12.5178 92.8659 12.6231 92.5998C14.1488 88.7436 15.841 84.9709 17.691 81.2902C17.8236 81.0264 17.8563 80.7217 17.764 80.4412C15.8289 74.5589 19.4925 68.2901 25.5536 67.0219C25.8568 66.9585 26.1167 66.7695 26.2885 66.5117C28.5615 63.1014 30.9802 59.7956 33.5358 56.6031C33.7359 56.3531 33.8403 56.0376 33.8059 55.7192C33.142 49.5615 38.0339 44.1921 44.2272 44.2052C44.5542 44.2059 44.8636 44.0671 45.0975 43.8385C48.0154 40.9867 51.0574 38.2601 54.2147 35.6674C54.4629 35.4636 54.6311 35.1759 54.6641 34.8564C55.3021 28.6915 61.2014 24.4541 67.2623 25.7492C67.5669 25.8143 67.8828 25.7463 68.1458 25.5793C71.6184 23.3733 75.1945 21.3143 78.8652 19.4112C79.1285 19.2748 79.335 19.0467 79.4265 18.7647C81.3403 12.8623 87.9846 9.93617 93.6525 12.461C93.9188 12.5797 94.2212 12.5794 94.4944 12.4776C98.3658 11.0348 102.318 9.75633 106.342 8.65071C106.621 8.57391 106.865 8.39783 107.01 8.14683C110.118 2.7662 117.216 1.27193 122.244 4.92235C122.494 5.10361 122.807 5.16935 123.112 5.12431C127.147 4.52888 131.237 4.1033 135.375 3.85513C135.693 3.83605 135.996 3.70319 136.21 3.46644ZM216.527 144C216.527 183.848 184.056 216.151 144 216.151C103.944 216.151 71.4728 183.848 71.4728 144C71.4728 104.152 103.944 71.8486 144 71.8486C184.056 71.8486 216.527 104.152 216.527 144Z" fill="url(#paint0_linear_179_5678)"/>
  <defs>
    <linearGradient id="paint0_linear_179_5678" x1="144" y1="3.59119" x2="144" y2="284.409" gradientUnits="userSpaceOnUse">
      <stop stop-color="#242424"/>
      <stop offset="1" stop-color="#141414"/>
    </linearGradient>
  </defs>
</svg>
