<svg viewBox="0 0 100 24" fill="none" xmlns="http://www.w3.org/2000/svg">
<rect x="0.570221" width="98.8825" height="24" rx="4" fill="#CC1626"/>
<path fill-rule="evenodd" clip-rule="evenodd" d="M34.9082 15.0375C35.287 15.0375 35.6588 14.933 35.9805 14.724C36.6167 14.3209 36.967 13.6191 36.967 12.8427C36.967 12.0439 36.5953 11.3122 35.9233 10.9166C35.6159 10.7299 35.2656 10.6329 34.9082 10.6329C34.5436 10.6329 34.1933 10.7299 33.8787 10.924C33.221 11.3272 32.8564 12.0513 32.8564 12.8427C32.8564 13.6116 33.1996 14.3134 33.8287 14.7165C34.1504 14.933 34.5221 15.0375 34.9082 15.0375ZM25.6289 11.9991V8.4604H27.4519C27.9166 8.4604 28.3169 8.63957 28.6458 8.98299V8.99045C28.9889 9.3264 29.1462 9.73701 29.1462 10.2223C29.1462 10.715 28.9746 11.1256 28.6458 11.4765C28.3169 11.8199 27.9166 11.9991 27.4519 11.9991H25.6289ZM25.6289 13.7684H27.4519C27.9023 13.7684 28.3455 13.6714 28.7673 13.4847C29.1676 13.2981 29.5322 13.0517 29.8468 12.7232C30.1542 12.4022 30.3972 12.0215 30.5688 11.6034C30.7547 11.1629 30.8405 10.7001 30.8405 10.2223C30.8405 9.75194 30.7547 9.28907 30.5688 8.85607C30.3972 8.438 30.1542 8.05726 29.8468 7.73624C29.5322 7.41522 29.1676 7.16139 28.7673 6.97475C28.3455 6.78811 27.9023 6.69853 27.4519 6.69853H23.9418V16.4933H25.6289V13.7684ZM37.0743 15.6572C36.4881 16.3067 35.6516 16.6576 34.7795 16.6576C32.7421 16.6576 31.2551 14.9405 31.2551 12.8427C31.2551 10.7523 32.7349 9.01285 34.7795 9.01285C35.6516 9.01285 36.4881 9.37119 37.0743 10.0282V9.09497H38.6685V16.568H37.0743V15.6572ZM45.4527 15.5377C44.9452 16.1798 44.1516 16.4859 43.351 16.4859C41.2635 16.4859 40.2198 14.9778 40.2198 12.9024V9.10243H41.8283V12.8128C41.8283 14.0521 42.3072 14.8658 43.5583 14.8658C44.9023 14.8658 45.467 13.8505 45.467 12.5366V9.10243H47.0541V15.5303C47.0541 17.7699 45.7244 19.3153 43.544 19.3153C42.4073 19.3153 41.3278 18.9346 40.4557 18.1731L40.3627 18.0984L41.2921 17.0607L41.3707 17.1055C42.057 17.5385 42.729 17.7699 43.544 17.7699C44.7378 17.7699 45.4527 17.098 45.4527 15.8364V15.5377Z" fill="white"/>
<path fill-rule="evenodd" clip-rule="evenodd" d="M72.7257 11.1181L72.7757 11.0136C72.7828 11.0061 72.7828 10.9912 72.79 10.9838V10.9763L72.84 10.8792H72.8472L72.8615 10.8494L72.8758 10.8344L72.8901 10.7971H72.8972C72.9115 10.7673 72.9258 10.7449 72.9401 10.7225L72.9473 10.7075C72.9544 10.7001 72.9616 10.6851 72.9687 10.6702L72.9759 10.6627L73.0045 10.6254V10.6179C73.0331 10.5731 73.0617 10.5358 73.0902 10.4985V10.491C73.1045 10.4761 73.1117 10.4686 73.1188 10.4537H73.126C73.798 9.53543 74.8346 8.99792 75.9426 8.99792H76.0928C78.0945 9.04271 79.5385 10.7449 79.5385 12.8128C79.5385 14.9106 78.0587 16.6426 76.0141 16.6426C75.2278 16.6426 74.4557 16.2918 73.941 15.6721V19.1959H72.3468V12.6486H72.3539C72.3682 12.1857 72.4683 11.7303 72.647 11.2973L72.6542 11.2824L72.6613 11.2525L72.6756 11.2301L72.7042 11.1555L72.7257 11.1181ZM48.6554 6.68359H50.3497V16.4784H48.6554V6.68359ZM52.6588 11.5959L56.5692 16.5083H54.3388L50.5713 11.5959L54.3388 6.68359H56.5692L52.6588 11.5959ZM58.0061 13.3055C58.0633 14.4776 58.9641 15.0823 60.0507 15.0823C60.8085 15.0823 61.5663 14.8658 62.224 14.4627L62.2955 14.4179L63.1891 15.4108L63.089 15.4929C62.2097 16.1947 61.1731 16.6277 60.0507 16.6277C57.9061 16.6277 56.3548 15.0599 56.3548 12.8128C56.3548 10.6179 57.8417 8.98298 59.9649 8.98298C61.409 8.98298 62.5671 9.70714 63.139 11.0883C63.3821 11.6855 63.4536 12.6038 63.2677 13.2234L63.2391 13.3055H58.0061ZM65.8913 13.3055C65.9485 14.4776 66.8493 15.0823 67.9359 15.0823C68.7008 15.0823 69.4586 14.8658 70.1092 14.4627L70.1878 14.4179L71.0743 15.4108L70.9813 15.4929C70.0949 16.1947 69.0583 16.6277 67.9359 16.6277C65.7913 16.6277 64.2471 15.0599 64.2471 12.8128C64.2471 10.6179 65.7269 8.98298 67.8573 8.98298C69.2942 8.98298 70.4523 9.70714 71.0242 11.0883C71.2744 11.6855 71.3388 12.6038 71.1529 13.2234L71.1315 13.3055H65.8913ZM82.1336 13.3055C82.1908 14.4776 83.0915 15.0823 84.1781 15.0823C84.9359 15.0823 85.7008 14.8658 86.3514 14.4627L86.43 14.4104L87.3165 15.4108L87.2164 15.4929C86.3371 16.1947 85.3005 16.6277 84.1781 16.6277C82.0335 16.6277 80.4893 15.0599 80.4893 12.8128C80.4893 10.6179 81.9691 8.98298 84.0995 8.98298C85.5364 8.98298 86.6945 9.70714 87.2664 11.0883C87.5166 11.6855 87.581 12.6038 87.3951 13.2234L87.3737 13.3055H82.1336ZM73.9267 12.8128C73.9267 15.8513 77.9372 15.5975 77.9372 12.8128C77.9372 10.0282 73.9267 9.77433 73.9267 12.8128ZM58.0991 11.9767H61.7736C61.7522 11.8498 61.7021 11.7228 61.6521 11.6034C61.3375 10.9091 60.7156 10.5284 59.9792 10.5284C59.1786 10.5284 58.4208 10.9838 58.1491 11.805C58.1277 11.8572 58.1134 11.9169 58.0991 11.9767ZM65.9843 11.9767H69.6659C69.6373 11.8498 69.5945 11.7228 69.5373 11.6034C69.2227 10.9091 68.6008 10.5284 67.8716 10.5284C67.0638 10.5284 66.306 10.9838 66.0343 11.805C66.02 11.8572 65.9986 11.9169 65.9843 11.9767ZM82.2265 11.9767H85.9082C85.8796 11.8498 85.8367 11.7228 85.7795 11.6034C85.4649 10.9091 84.843 10.5284 84.1138 10.5284C83.306 10.5284 82.5482 10.9838 82.2765 11.7975C82.2551 11.8572 82.2408 11.9169 82.2265 11.9767ZM90.2761 10.073C90.9124 9.33387 91.806 9.00538 92.7711 9.00538H93.1428L93.1499 10.6702H92.4565C90.9267 10.6702 90.2904 11.7602 90.2904 13.2533V16.5381H88.639V9.0875H90.2761V10.073Z" fill="#FFCC00"/>
<path fill-rule="evenodd" clip-rule="evenodd" d="M12.6395 16.5307L17.3506 11.6109L12.6395 6.69853C13.8119 6.69853 14.9843 6.69853 16.1567 6.69853L20.8678 11.6109L16.1567 16.5307C14.9843 16.5307 13.8119 16.5307 12.6395 16.5307ZM6.44141 16.5307L11.1525 11.6109L6.44141 6.69853C7.61382 6.69853 8.78623 6.69853 9.95865 6.69853L14.6697 11.6109L9.95865 16.5307C8.78623 16.5307 7.61382 16.5307 6.44141 16.5307Z" fill="white"/>
</svg>
