<svg xmlns="http://www.w3.org/2000/svg" viewBox="0 0 1920 465" fill="none">
  <path d="M-422.112 61.9128L-461.759 130.567L-451.454 168.65L-328.145 -44.9996L-199.073 -44.9997L-339.149 197.65L-453.55 228.221L-606.376 493.055L-671 493.055L-501.232 198.872L-566.554 -44.9996L-360.282 -44.9996L-376.526 -17.0488L-443.267 -17.0488L-422.112 61.9128Z" fill="#A50D0D"/>
  <path fill-rule="evenodd" clip-rule="evenodd" d="M-352.248 387.89L-312.601 319.41L-322.906 281.327L-446.214 494.976L-575.287 494.976L-435.211 252.328L-320.635 221.582L-167.809 -43.2527L-167.341 -43.2527L-167.809 -44.9997L38.2882 -44.9997L22.2198 -17.0488L-44.6506 -17.0488L-23.3662 61.9128L-63.0137 130.567L-52.7088 168.65L70.6001 -44.9997L199.673 -44.9997L59.5966 197.65L-54.9793 228.221L-207.806 493.055L-208.32 493.055L-207.806 494.976L-413.903 494.976L-397.834 467.026L-330.952 467.026L-352.248 387.89ZM-273.128 251.105L-147.05 32.5007L-102.486 198.872L-228.588 417.387L-273.128 251.105Z" fill="#A50D0D"/>
  <path fill-rule="evenodd" clip-rule="evenodd" d="M46.4972 387.89L86.1448 319.41L75.8398 281.327L-47.469 494.976L-176.542 494.976L-36.4656 252.328L77.9358 221.582L230.937 -43.2527L346.561 -43.2527L375.205 63.8345L335.732 132.489L346.037 170.397L469.346 -43.2527L598.418 -43.2527L458.342 199.396L343.766 230.142L190.94 494.976L-15.1572 494.976L0.911436 467.026L67.6649 467.026L46.4972 387.89ZM125.618 251.105L251.366 33.0722L296.259 200.794L170.468 418.547L125.618 251.105Z" fill="#A50D0D"/>
  <path fill-rule="evenodd" clip-rule="evenodd" d="M445.243 389.812L484.89 321.157L474.585 283.249L351.276 496.898L222.204 496.898L362.28 254.25L476.681 223.504L629.507 -41.331L745.306 -41.331L773.95 65.7563L734.302 134.41L744.607 172.319L867.916 -41.331L996.989 -41.331L856.913 201.317L742.512 232.063L589.685 496.898L473.887 496.898L445.243 389.812ZM524.188 252.852L650.007 35.0511L695.004 202.715L569.186 420.516L524.188 252.852Z" fill="#A50D0D"/>
  <path fill-rule="evenodd" clip-rule="evenodd" d="M843.988 391.733L883.461 323.079L873.156 284.996L749.847 498.645L620.775 498.645L760.851 255.997L875.427 225.426L1028.25 -39.4092L1144.05 -39.4092L1172.7 67.5032L1133.05 136.157L1143.35 174.24L1266.66 -39.4092L1395.73 -39.4092L1255.66 203.239L1141.08 233.985L988.256 498.645L872.632 498.645L843.988 391.733ZM922.934 254.774L1048.72 37.0207L1093.58 204.462L967.825 422.369L922.934 254.774Z" fill="#A50D0D"/>
  <path fill-rule="evenodd" clip-rule="evenodd" d="M1242.56 393.654L1282.21 325L1271.9 286.917L1148.59 500.567L1019.52 500.567L1159.6 257.919L1274.17 227.172L1427 -37.4874L1542.62 -37.4874L1571.27 69.4242L1531.79 138.079L1542.1 176.162L1665.41 -37.4874L1794.48 -37.4874L1654.4 205.161L1539.83 235.732L1387 500.567L1271.2 500.567L1242.56 393.654ZM1321.68 256.695L1447.43 38.7889L1492.32 206.384L1366.57 424.291L1321.68 256.695Z" fill="#A50D0D"/>
  <path fill-rule="evenodd" clip-rule="evenodd" d="M1641.3 395.401L1680.95 326.922L1670.65 288.839L1547.34 502.489L1418.27 502.489L1558.34 259.839L1672.74 229.094L1825.57 -35.7405L1941.37 -35.7405L1970.01 71.3459L1930.36 140.001L1940.67 177.909L2064.15 -35.7405L2193.23 -35.7405L2053.15 206.908L1938.57 237.654L1785.75 502.489L1669.95 502.489L1641.3 395.401ZM1720.42 258.617L1846.09 40.7261L1891.07 208.305L1765.27 426.059L1720.42 258.617Z" fill="#A50D0D"/>
  <path fill-rule="evenodd" clip-rule="evenodd" d="M2040.05 397.323L2079.7 328.669L2069.22 290.76L1945.91 504.41L1816.84 504.41L1956.91 261.761L2071.49 231.015L2224.31 -33.8187L2340.11 -33.8187L2368.76 73.2677L2329.11 141.922L2339.41 179.83L2462.72 -33.8187L2591.8 -33.8187L2451.72 208.83L2337.32 239.576L2184.32 504.41L2068.69 504.41L2040.05 397.323ZM2119 260.364L2244.78 42.6282L2289.64 210.227L2163.9 428.116L2119 260.364Z" fill="#A50D0D"/>
</svg>
