<svg xmlns="http://www.w3.org/2000/svg" viewBox="0 0 24 22" fill="none">
  <path fill-rule="evenodd" clip-rule="evenodd" d="M2.59417 19.3484H21.4463L12.0058 3.04069C8.88304 8.47659 5.72776 13.9125 2.59417 19.3484ZM11.7889 0.355275C12.5624 0.261304 13.3611 0.666104 13.7551 1.33836L23.7016 18.5713C24.1643 19.3231 24.0847 20.3423 23.492 21.0001C23.1233 21.3941 22.5667 21.6579 22.0246 21.6579H2.32671C2.13154 21.6579 1.90022 21.6579 1.69059 21.6362C0.588234 21.4519 -0.15631 20.411 0.0280192 19.3086C0.0677764 19.0773 0.143677 18.8568 0.259335 18.6544L10.1697 1.53715C10.2384 1.42149 10.3071 1.26969 10.401 1.15403C10.748 0.713091 11.254 0.413104 11.7889 0.355275Z" fill="#D42111"/>
  <path fill-rule="evenodd" clip-rule="evenodd" d="M2.59417 19.3484H21.4463L12.0058 3.04069C8.88304 8.47659 5.72776 13.9125 2.59417 19.3484Z" fill="white"/>
  <path fill-rule="evenodd" clip-rule="evenodd" d="M7.94692 11.2632H9.40348V16.8473H11.254V11.2524H12.6997V16.8401H14.5286V11.2379H15.996V18.34H7.94692V11.2379V11.2632Z" fill="#141414"/>
</svg>
