<svg viewBox="0 0 174 36" fill="none" xmlns="http://www.w3.org/2000/svg">
<path fill-rule="evenodd" clip-rule="evenodd" d="M39.7794 0.364766L39.4721 0.729531H31.9309L31.75 1.33139C31.6505 1.66246 31.3331 2.73757 31.0447 3.72061C28.4888 12.4327 27.1711 16.671 26.7714 17.4658C26.4978 18.0098 25.9193 18.6222 25.4791 18.8341C25.1687 18.9834 25.05 18.9956 24.0791 18.9779C23.4123 18.9657 22.9327 18.9229 22.7878 18.8627C22.5549 18.766 22.3117 18.3851 22.3117 18.117C22.3117 18.0424 23.3355 14.1474 24.5869 9.46151C25.8382 4.77566 26.8621 0.910382 26.8621 0.872082C26.8621 0.828748 25.3663 0.802485 22.9017 0.802485H18.9412L18.8704 1.07606C18.5357 2.36915 17.1696 7.40292 16.5788 9.52038C15.186 14.5115 14.2434 17.5203 13.9294 17.9772C13.3537 18.8148 12.9878 18.9678 11.5595 18.9678C9.97589 18.9678 9.49876 18.7332 9.55901 17.984C9.57523 17.7828 10.7172 13.8358 12.0969 9.21289C13.4765 4.59007 14.6053 0.790083 14.6053 0.768561C14.6053 0.747113 12.8046 0.729531 10.6038 0.729531H6.60228L6.53035 0.893676C6.44074 1.09802 0 22.3168 0 22.4076C0 22.4468 5.53675 22.4645 13.6329 22.4513C28.8394 22.4264 27.6908 22.4654 29.3469 21.9175C31.3585 21.2519 32.9659 20.0243 34.1687 18.2351C35.0243 16.9625 35.1448 16.6315 37.5019 9.08267C38.7172 5.19062 39.7458 1.89955 39.7878 1.76911L39.8641 1.53202L67.216 1.52975L94.5678 1.52749L95.0815 0.932706C95.3641 0.605584 95.6554 0.261902 95.7291 0.168959L95.8628 0H40.0866L39.7794 0.364766ZM105.5 0.819629C105.247 1.11075 104.996 1.40257 104.745 1.69507L104.573 1.89678L135.497 1.89423L166.42 1.89175L166.971 1.26574C167.273 0.921398 167.614 0.528618 167.728 0.39278L167.935 0.145906H106.083L105.5 0.819629ZM95.8615 2.06093C95.5751 2.93454 89.4669 22.4592 89.4669 22.501C89.4669 22.5242 93.2712 22.5348 97.921 22.5246L106.375 22.506L106.752 21.0105C106.959 20.188 107.152 19.4249 107.18 19.3149L107.231 19.1149L102.879 19.0961L98.5274 19.0772L101.263 10.3593C102.767 5.5645 103.998 1.6332 103.998 1.62321C103.999 1.61321 102.202 1.60497 100.005 1.60497H96.0109L95.8615 2.06093ZM58.4948 4.18948C55.1436 4.78791 53.3759 6.54747 52.9194 9.73924C52.6316 11.7515 53.1208 12.7065 55.7215 15.209C57.5925 17.0092 57.8207 17.3641 57.577 18.0933C57.3279 18.839 56.7362 19.2552 56.0545 19.1643C55.5482 19.0968 54.8114 18.5073 54.1512 17.6414C53.8892 17.2977 53.3426 16.9464 52.8449 16.8018C52.5036 16.7026 52.3613 16.6973 51.9414 16.7684C50.7158 16.9758 50.0693 17.6542 49.9123 18.8974C49.7939 19.8347 50.0781 20.4674 50.8824 21.0567C52.0626 21.9214 53.9741 22.5533 56.0568 22.7673C57.9886 22.9657 60.5038 22.4285 61.9464 21.5093C62.9357 20.8788 63.6173 20.0348 63.9691 19.0043C64.1385 18.5079 64.1689 18.2953 64.1726 17.5817C64.1827 15.5666 63.2102 13.7166 60.8773 11.3138C59.6865 10.0872 59.5061 9.84867 59.3736 9.32494C59.2593 8.87307 59.3665 8.55354 59.7468 8.21204C60.0084 7.97713 60.0774 7.95197 60.4583 7.95262C61.137 7.95372 61.5358 8.18709 62.5608 9.18283C63.0492 9.65739 63.523 10.0845 63.6137 10.132C64.4103 10.5491 65.9205 10.2272 66.5822 9.49908C66.9361 9.10973 67.0332 8.78035 66.9929 8.10648C66.9315 7.07901 66.5052 6.49443 65.2869 5.76731C64.1329 5.07849 63.1571 4.65237 62.0062 4.33458C61.4377 4.17766 61.1259 4.14067 60.1828 4.11821C59.4343 4.1004 58.857 4.12477 58.4948 4.18948ZM119.412 4.35173C117.295 4.67083 116.012 5.10847 114.757 5.94043C113.67 6.66091 112.603 7.89623 112.102 9.01577C111.579 10.1827 107.742 22.0696 107.742 22.5217C107.742 22.599 108.348 22.6134 110.952 22.598L114.162 22.579L115.275 18.9678L116.388 15.3566L118.45 15.3372C119.584 15.3266 120.512 15.3383 120.512 15.3633C120.512 15.4054 118.867 21.3462 118.64 22.1238L118.538 22.4711L121.664 22.4521L124.789 22.4331L126.539 16.892C127.501 13.8444 128.346 11.0868 128.415 10.7639C128.573 10.031 128.591 8.51925 128.448 7.95189C128.296 7.34901 128.03 6.83542 127.655 6.4209C126.704 5.36964 125.026 4.61626 123.118 4.38478C122.511 4.31117 119.839 4.28731 119.412 4.35173ZM40.0963 4.49486C40.0713 4.55957 38.9397 8.6386 37.5816 13.5593L35.1123 22.506L41.9347 22.5246C45.6871 22.5349 48.7658 22.5346 48.7763 22.5241C48.787 22.5136 48.9413 21.7255 49.1192 20.7729L49.4429 19.0408H46.2258C44.4564 19.0408 43.0087 19.03 43.0087 19.0168C43.0087 19.0036 43.2399 18.1044 43.5225 17.0187C43.805 15.9329 44.0362 15.0245 44.0362 15C44.0362 14.9755 45.0601 14.9554 46.3114 14.9554C47.5628 14.9554 48.5889 14.9472 48.5918 14.9372C48.5945 14.9272 48.7043 14.1885 48.8356 13.2957L49.0745 11.6725H47.0245C45.3249 11.6725 44.9812 11.6555 45.013 11.5731C45.0341 11.5185 45.2871 10.6731 45.5753 9.6946L46.1369 7.78775C46.172 7.66862 46.3958 7.66008 49.4935 7.66008H52.8125L53.1916 6.07911C53.4 5.20958 53.5536 4.47093 53.533 4.43767C53.5123 4.4044 50.4907 4.37719 46.8186 4.37719C40.7435 4.37719 40.1376 4.38777 40.0963 4.49486ZM131.53 4.76019C131.489 4.89056 130.378 8.90393 129.063 13.6787C127.748 18.4535 126.654 22.4179 126.633 22.4886C126.596 22.61 126.767 22.616 129.765 22.598L132.937 22.579L133.789 19.8252C134.257 18.3107 134.662 17.0714 134.689 17.0713C134.715 17.0712 135.882 18.2857 137.281 19.7703L139.825 22.4696H161.151L161.599 20.7431C161.845 19.7936 162.03 18.9893 162.009 18.9558C161.988 18.9223 160.533 18.8949 158.775 18.8949C156.249 18.8949 155.586 18.8757 155.613 18.8037C155.632 18.7536 155.808 17.8671 156.005 16.8339L156.363 14.9554H161.077L161.502 13.4051C161.736 12.5525 161.943 11.7975 161.962 11.7272C161.995 11.6077 161.856 11.5995 159.787 11.5995C158.571 11.5995 157.577 11.5913 157.577 11.5813C157.578 11.5713 157.82 10.6931 158.116 9.62982L158.654 7.69656L162.069 7.67759L165.485 7.65862L165.861 6.16505C166.068 5.3436 166.237 4.63807 166.237 4.59729C166.237 4.54732 162.624 4.52309 155.179 4.52309H144.121L140.493 6.71723C138.498 7.92395 136.855 8.90043 136.842 8.88715C136.821 8.86694 137.175 7.57589 137.902 5.01553L138.042 4.52309H131.606L131.53 4.76019ZM68.5849 4.68724C68.1781 5.79014 67.302 8.27186 67.302 8.32118C67.302 8.35963 68.3786 8.39581 69.8542 8.4069L72.4063 8.42609L70.5556 15.2837C69.5377 19.0554 68.6839 22.2316 68.6582 22.3419L68.6114 22.5425H74.8559L74.9568 22.196C75.0123 22.0054 75.864 18.8539 76.8496 15.1928L78.6413 8.53617L80.9585 8.53581L83.2757 8.53552L83.986 6.61342C84.3767 5.55626 84.6963 4.66988 84.6963 4.64369C84.6963 4.6175 81.0788 4.59605 76.6574 4.59605C70.2932 4.59605 68.6115 4.61502 68.5849 4.68724ZM120.156 7.95357C119.694 8.0495 119.227 8.34752 118.986 8.70134C118.749 9.04736 118.293 10.0814 117.951 11.0442C117.826 11.3962 117.723 11.698 117.723 11.7148C117.723 11.7317 118.64 11.7452 119.76 11.745L121.797 11.7446L122.192 10.3679C122.625 8.85848 122.638 8.62569 122.307 8.2966C122.206 8.19629 121.984 8.07993 121.813 8.03798C121.341 7.92169 120.513 7.87952 120.156 7.95357ZM144.568 11.15L139.45 14.2623L142.88 17.6736C145.627 20.4056 146.321 21.0592 146.363 20.9564C146.392 20.8858 147.112 18.169 147.963 14.9189C148.815 11.6689 149.573 8.78815 149.648 8.51728C149.724 8.2464 149.763 8.02776 149.736 8.03127C149.709 8.03484 147.383 9.43824 144.568 11.15ZM169.48 19.5579C168.91 19.6553 168.344 19.9487 167.849 20.4039C166.195 21.9264 166.64 24.5792 168.713 25.5554C169.182 25.7761 169.256 25.7889 170.055 25.7889C170.87 25.7889 170.919 25.7799 171.413 25.5383C172.068 25.2182 172.598 24.6912 172.92 24.0396C173.163 23.5487 173.172 23.5003 173.172 22.6884C173.172 21.8765 173.163 21.8282 172.92 21.3373C172.279 20.0421 170.88 19.3188 169.48 19.5579ZM169.059 20.4122C168.18 20.8344 167.705 21.6335 167.705 22.6884C167.705 23.7039 168.167 24.5163 168.98 24.9289C169.517 25.2014 170.301 25.2414 170.877 25.0256C171.408 24.8265 171.908 24.3507 172.168 23.7988C172.337 23.4378 172.363 23.288 172.363 22.6884C172.362 22.1269 172.33 21.9272 172.197 21.6364C171.957 21.1134 171.592 20.7072 171.144 20.4648C170.815 20.2868 170.647 20.2473 170.127 20.2255C169.558 20.2016 169.463 20.2183 169.059 20.4122ZM168.805 22.6854V24.5203L169.154 24.498L169.503 24.4758L169.524 23.728C169.544 23.0003 169.549 22.9802 169.715 22.9802C169.853 22.9802 169.974 23.1261 170.35 23.7462L170.815 24.5123H171.168C171.362 24.5123 171.521 24.491 171.521 24.4651C171.521 24.4392 171.319 24.093 171.072 23.6957C170.825 23.2984 170.635 22.9641 170.65 22.9529C170.665 22.9416 170.781 22.8913 170.908 22.841C171.271 22.6977 171.447 22.4618 171.491 22.0614C171.536 21.6434 171.385 21.2914 171.057 21.0522C170.876 20.92 170.722 20.8979 169.828 20.8758L168.805 20.8506V22.6854ZM169.539 21.9224V22.3966H169.902C170.291 22.3966 170.64 22.2947 170.729 22.1549C170.83 21.9977 170.789 21.7424 170.64 21.5941C170.524 21.4781 170.396 21.4482 170.016 21.4482H169.539V21.9224ZM155.428 25.3475C153.36 25.7096 151.679 26.6847 151.104 27.8563C150.859 28.3554 150.83 29.1422 151.04 29.5738C151.405 30.3228 152.136 30.7536 154.271 31.4785C155.702 31.9643 156.122 32.1673 156.244 32.4327C156.511 33.0149 155.596 33.7773 154.629 33.7773C153.834 33.7773 153.34 33.3457 153.411 32.7147L153.448 32.3912H149.593L149.51 32.9566C149.291 34.4492 150.134 35.4385 151.995 35.8731C152.437 35.9763 152.867 36.0019 154.127 35.9999C155.507 35.9977 155.786 35.9771 156.353 35.8357C158.532 35.2922 159.82 34.2039 160.149 32.6284C160.284 31.979 160.145 31.5747 159.601 31.0389C159.058 30.5039 158.533 30.2408 156.769 29.6191C154.84 28.9397 154.569 28.7415 154.826 28.2028C154.907 28.033 155.076 27.8641 155.292 27.738C155.586 27.5661 155.711 27.5398 156.231 27.5398C156.988 27.5398 157.212 27.6735 157.313 28.185L157.381 28.5247H159.236C160.256 28.5247 161.108 28.4963 161.13 28.4616C161.151 28.4269 161.19 28.2189 161.216 27.9993C161.356 26.8128 160.465 25.8542 158.824 25.4256C158.176 25.2563 156.207 25.2111 155.428 25.3475ZM110.69 26.5518C110.522 27.192 110.384 27.7337 110.384 27.7555C110.384 27.7773 111.028 27.7951 111.815 27.7951C112.843 27.7951 113.246 27.8187 113.246 27.8789C113.246 27.9249 112.784 29.7127 112.219 31.8518C111.654 33.9908 111.191 35.7752 111.191 35.817C111.191 35.8677 111.824 35.8929 113.094 35.8929H114.997L115.107 35.5099C115.167 35.2993 115.617 33.6004 116.107 31.7346C116.597 29.8688 117.03 28.2192 117.07 28.0687L117.142 27.7951H120.05L120.355 26.6698C120.522 26.0508 120.659 25.5092 120.659 25.466C120.659 25.411 119.222 25.3877 115.827 25.3877H110.995L110.69 26.5518ZM120.781 30.5856C120.026 33.4445 119.409 35.8081 119.41 35.8382C119.411 35.8684 120.269 35.8929 121.317 35.8929H123.222L123.302 35.6194C123.62 34.535 125.984 25.452 125.955 25.4235C125.935 25.4038 125.072 25.3877 124.037 25.3877H122.155L120.781 30.5856ZM128.635 25.4424C128.616 25.4725 127.999 27.7787 127.262 30.5674C126.804 32.3006 126.346 34.0336 125.887 35.7665C125.854 35.8877 125.964 35.8943 127.707 35.8759L129.563 35.8565L129.992 34.221C130.228 33.3214 130.43 32.5765 130.441 32.5656C130.452 32.5546 131.032 33.2988 131.731 34.2193L133 35.8929H135.16C136.348 35.8929 137.32 35.8652 137.32 35.8314C137.32 35.7975 136.647 35.0015 135.825 34.0623L134.331 32.3547L135.036 32.1887C137.921 31.5098 139.621 29.1443 138.644 27.1704C138.125 26.1229 137.047 25.615 135.015 25.4609C133.9 25.3764 128.684 25.3613 128.635 25.4424ZM141.657 25.6613L140.296 30.81C139.587 33.4914 139.008 35.732 139.008 35.7891C139.008 35.8777 139.614 35.8929 143.136 35.8929H147.265L147.552 34.8169C147.658 34.4157 147.765 34.0144 147.872 33.6132C147.903 33.4936 147.759 33.4855 145.6 33.4855H143.294L143.517 32.6101L143.741 31.7346L145.98 31.7345L148.219 31.7345L148.525 30.5885C148.694 29.9583 148.816 29.4166 148.796 29.3849C148.776 29.3531 147.774 29.3272 146.569 29.3272H144.378L144.58 28.5794L144.782 27.8316L147.094 27.8124L149.406 27.7931L149.711 26.63C149.879 25.9904 150.017 25.4491 150.017 25.4273C150.017 25.4055 148.152 25.3877 145.873 25.3877H141.729L141.657 25.6613ZM131.338 29.1265C131.145 29.8588 130.971 30.499 130.953 30.5491C130.909 30.6656 132.433 30.6753 133.136 30.563C134.314 30.3748 135.118 29.7104 135.118 28.9246C135.118 28.122 134.375 27.7965 132.542 27.7956L131.69 27.7951L131.338 29.1265Z" fill="white"/>
</svg>
