<svg xmlns="http://www.w3.org/2000/svg" viewBox="0 0 24 24" >
  <path d="M21.406 6.08625L12.406 2.08625C12.146 1.97125 11.853 1.97125 11.593 2.08625L2.593 6.08625C2.573 6.09525 2.559 6.11025 2.539 6.12125C2.511 6.13525 2.481 6.14425 2.455 6.16125C2.433 6.17625 2.416 6.19525 2.395 6.21125C2.367 6.23225 2.34 6.25525 2.315 6.27925C2.274 6.31825 2.238 6.36025 2.205 6.40525C2.185 6.43325 2.164 6.45825 2.146 6.48625C2.115 6.53925 2.092 6.59425 2.07 6.65125C2.061 6.67825 2.047 6.70325 2.039 6.73025C2.015 6.81725 2 6.90725 2 7.00025V17.0002C2 17.3962 2.232 17.7532 2.594 17.9142L11.594 21.9142C11.724 21.9722 11.862 22.0002 12 22.0002C12.139 22.0002 12.273 21.9612 12.402 21.9042L12.406 21.9142L21.406 17.9142C21.768 17.7532 22 17.3962 22 17.0002V7.00025C22 6.60425 21.768 6.24725 21.406 6.08625ZM12 4.09525L18.538 7.00025L12 9.90525L10.692 9.32425L5.463 7.00025L12 4.09525ZM4 16.3512V8.53925L11 11.6502V19.4613L4 16.3512ZM13 19.4613V11.6502L20 8.53925V16.3512L13 19.4613Z" />
</svg>
