<svg xmlns="http://www.w3.org/2000/svg" viewBox="0 0 24 25">
  <path d="M12.0005 5.09511C10.8965 4.08911 9.48847 3.53711 8.00447 3.53711C6.42647 3.53711 4.93247 4.16011 3.79147 5.29511C1.43847 7.65811 1.43947 11.3541 3.79347 13.7071L11.1255 21.0391C11.2955 21.3381 11.6235 21.5311 12.0005 21.5311C12.3225 21.5311 12.6095 21.3681 12.7925 21.1221L20.2075 13.7071C22.5615 11.3531 22.5615 7.65811 20.2055 5.29111C19.0685 4.16011 17.5745 3.53711 15.9965 3.53711C14.5135 3.53711 13.1045 4.08911 12.0005 5.09511ZM18.7915 6.70511C20.3545 8.27611 20.3555 10.7301 18.7935 12.2931L12.0005 19.0861L5.20747 12.2931C3.64547 10.7301 3.64647 8.27611 5.20547 6.70911C5.96547 5.95311 6.95947 5.53711 8.00447 5.53711C9.04947 5.53711 10.0395 5.95311 10.7935 6.70711L11.2935 7.20711C11.6845 7.59811 12.3165 7.59811 12.7075 7.20711L13.2075 6.70711C14.7195 5.19811 17.2815 5.20211 18.7915 6.70511Z"/>
</svg>
