<svg viewBox="0 0 20 20" xmlns="http://www.w3.org/2000/svg">
<path d="M9.99996 1.66699C5.40496 1.66699 1.66663 5.40533 1.66663 10.0003V10.5953V13.3337V13.4528C1.66663 14.3062 2.41413 15.0003 3.33329 15.0003H4.16663C4.62746 15.0003 4.99996 14.627 4.99996 14.167V9.88116C4.99996 9.42116 4.62746 9.04783 4.16663 9.04783H3.40996C3.87329 5.82283 6.64829 3.33366 9.99996 3.33366C13.3516 3.33366 16.1266 5.82283 16.59 9.04783H15.8333C15.3725 9.04783 15 9.42116 15 9.88116V13.3337V14.167V15.0003C15 15.9195 14.2525 16.667 13.3333 16.667H11.6666V15.8337H8.33329V18.3337H9.99996H11.6666H13.3333C15.1716 18.3337 16.6666 16.8387 16.6666 15.0003C17.5858 15.0003 18.3333 14.3062 18.3333 13.4528V13.3337V10.5953V10.0003C18.3333 5.40533 14.595 1.66699 9.99996 1.66699Z" />
</svg>
