<svg viewBox="0 0 39 24" fill="none" xmlns="http://www.w3.org/2000/svg">
<rect width="38.3032" height="24" rx="4" fill="white"/>
<path d="M21.4766 7.67676H16.8121V16.3237H21.4766V7.67676Z" fill="#FF5A00"/>
<path d="M17.1229 12C17.1229 10.2432 17.9233 8.68398 19.1515 7.67654C18.2476 6.9432 17.1074 6.5 15.8636 6.5C12.9173 6.5 10.5333 8.95987 10.5333 12C10.5333 15.0401 12.9173 17.5 15.8636 17.5C17.1074 17.5 18.2476 17.0568 19.1515 16.3235C17.9216 15.3303 17.1229 13.7568 17.1229 12Z" fill="#EB001B"/>
<path d="M27.7701 12C27.7701 15.0401 25.3861 17.5 22.4398 17.5C21.196 17.5 20.0558 17.0568 19.1519 16.3235C20.3956 15.3142 21.1805 13.7568 21.1805 12C21.1805 10.2432 20.3801 8.68398 19.1519 7.67654C20.054 6.9432 21.1943 6.5 22.438 6.5C25.3861 6.5 27.7701 8.97589 27.7701 12Z" fill="#F79E1B"/>
</svg>
