<svg viewBox="0 0 47 24" fill="none" xmlns="http://www.w3.org/2000/svg">
<rect x="0.606384" width="45.9638" height="24" rx="4" fill="white"/>
<path d="M36.7161 7H30.3528C30.7235 9.19355 32.7622 11.2581 34.9863 11.2581H40.0522C40.114 11.0645 40.114 10.7419 40.114 10.5484C40.114 8.6129 38.5695 7 36.7161 7Z" fill="url(#paint0_linear_2010_8380)"/>
<path d="M30.9099 11.6445V16.9994H33.9988V14.1607H36.7171C38.1998 14.1607 39.4972 13.0639 39.9296 11.6445H30.9099Z" fill="#4FAD50"/>
<path d="M20.0359 7V16.9355H22.7543C22.7543 16.9355 23.4338 16.9355 23.8045 16.2258C25.6579 12.4194 26.2139 11.2581 26.2139 11.2581H26.5846V16.9355H29.6735V7H26.9552C26.9552 7 26.2757 7.06452 25.905 7.70968C24.3605 11 23.4956 12.6774 23.4956 12.6774H23.1249V7H20.0359Z" fill="#4FAD50"/>
<path d="M7.06256 16.9999V7.06445H10.1515C10.1515 7.06445 11.0164 7.06445 11.5107 8.48381C12.7463 12.2257 12.8698 12.7419 12.8698 12.7419C12.8698 12.7419 13.1169 11.8386 14.229 8.48381C14.7232 7.06445 15.5881 7.06445 15.5881 7.06445H18.6771V16.9999H15.5881V11.6451H15.2174L13.4876 16.9999H12.1285L10.3987 11.6451H10.028V16.9999H7.06256Z" fill="#4FAD50"/>
<defs>
<linearGradient id="paint0_linear_2010_8380" x1="30.3418" y1="9.15955" x2="40.0921" y2="9.15955" gradientUnits="userSpaceOnUse">
<stop stop-color="#27B1E6"/>
<stop offset="1" stop-color="#148ACA"/>
</linearGradient>
</defs>
</svg>
