<svg xmlns="http://www.w3.org/2000/svg" viewBox="0 0 20 20" >
  <path d="M4.51574 12.323L3.02574 18.775C2.93374 19.174 3.09374 19.589 3.43174 19.822C3.60274 19.94 3.80074 20 3.99974 20C4.19274 20 4.38674 19.944 4.55474 19.832L9.99974 16.202L15.4447 19.832C15.7927 20.064 16.2497 20.055 16.5897 19.808C16.9277 19.561 17.0767 19.128 16.9617 18.726L15.1327 12.326L19.6687 8.244C19.9657 7.976 20.0747 7.558 19.9467 7.18C19.8177 6.802 19.4767 6.536 19.0787 6.504L13.3777 6.05L10.9107 0.589C10.7497 0.23 10.3927 0 9.99974 0C9.60674 0 9.24974 0.23 9.08874 0.589L6.62174 6.05L0.920742 6.503C0.528742 6.534 0.191742 6.791 0.059742 7.16C-0.074258 7.529 0.0217421 7.942 0.301742 8.216L4.51574 12.323Z" />
</svg>
