<svg xmlns="http://www.w3.org/2000/svg" viewBox="0 0 24 24" fill="none">
  <path d="M22.7125 8.4624L21.3 7.0499L17.35 10.9999H13.7375L15.5375 7.8749L20.9375 6.4249L20.425 4.4999L16.95 5.4249L18.875 2.1124L17.1375 1.1124L15.225 4.4249L14.3 0.962402L12.3625 1.4749L13.8125 6.8749L10.85 11.9999L13.8125 17.1249L12.3625 22.5249L14.3 23.0374L15.225 19.5749L17.1375 22.8999L18.875 21.8999L16.95 18.5749L20.425 19.5124L20.9375 17.5749L15.5375 16.1249L13.7375 12.9999H17.35L21.3 16.9499L22.7125 15.5374L20.175 12.9999H24V10.9999H20.175L22.7125 8.4624Z" fill="#00AAFF"/>
  <path d="M6.86533 1.11225L5.13333 2.11225L7.63333 6.44225L9.36533 5.44225L6.86533 1.11225Z" fill="#FFD400"/>
  <path d="M5 10.9999H0V12.9999H5V10.9999Z" fill="#FFD400"/>
  <path d="M7.6313 17.5647L5.1318 21.8952L6.864 22.895L9.3635 18.5645L7.6313 17.5647Z" fill="#FFD400"/>
  <path d="M8.53751 13.9999C8.00001 13.0749 7.86251 11.9999 8.13751 10.9624C8.41251 9.9249 9.07502 9.06241 10 8.53741C10.6125 8.18741 11.3 7.99991 12 7.99991V5.99991C10.9875 5.99991 9.95002 6.26241 9.00002 6.79991C6.12502 8.46241 5.15002 12.1249 6.80002 14.9999C7.91252 16.9249 9.92501 17.9999 11.9875 17.9999V15.9999C10.575 15.9999 9.25001 15.2374 8.53751 13.9999Z" fill="#FFD400"/>
</svg>
