<svg xmlns="http://www.w3.org/2000/svg" viewBox="0 0 24 22" fill="none">
  <path d="M17.2 7.99908C16.0875 6.07408 14.075 4.99908 12 4.99908C10.9875 4.99908 9.95 5.26158 9 5.79908C6.125 7.46158 5.15 11.1366 6.8 13.9991C7.9125 15.9241 9.925 16.9991 12 16.9991C13.0125 16.9991 14.05 16.7366 15 16.1991C17.875 14.5366 18.85 10.8741 17.2 7.99908Z" fill="#FFD400"/>
  <path d="M6.86533 0.109171L5.13333 1.10917L7.63333 5.43917L9.36533 4.43917L6.86533 0.109171Z" fill="#FFD400"/>
  <path d="M16.363 16.5594L14.631 17.5594L17.131 21.8894L18.863 20.8894L16.363 16.5594Z" fill="#FFD400"/>
  <path d="M5 9.99908H0V11.9991H5V9.99908Z" fill="#FFD400"/>
  <path d="M24 9.99908H19V11.9991H24V9.99908Z" fill="#FFD400"/>
  <path d="M17.1326 0.108887L14.6331 4.43939L16.3653 5.43919L18.8648 1.10869L17.1326 0.108887Z" fill="#FFD400"/>
  <path d="M7.62966 16.5609L5.13016 20.8914L6.86236 21.8912L9.36186 17.5607L7.62966 16.5609Z" fill="#FFD400"/>
</svg>
