<svg xmlns="http://www.w3.org/2000/svg" viewBox="0 0 24 24" fill="none">
  <path d="M24 10.9999H20.175L22.7125 8.4624L21.3 7.0499L17.35 10.9999H13.7375L15.5375 7.8749L20.9375 6.4249L20.4125 4.4999L16.95 5.4249L18.8625 2.1124L17.1375 1.1124L15.225 4.4249L14.3 0.962402L12.3625 1.4749L13.8125 6.8749L12 9.9999L10.2 6.8749L11.6375 1.4749L9.7125 0.962402L8.7875 4.4249L6.8625 1.1124L5.1375 2.1124L7.05 5.4249L3.5875 4.4999L3.075 6.4249L8.4625 7.8749L10.275 10.9999H6.6625L2.7125 7.0499L1.3 8.4624L3.825 10.9999H0V12.9999H3.825L1.3 15.5374L2.7125 16.9499L6.6625 12.9999H10.275L8.4625 16.1249L3.075 17.5749L3.5875 19.5124L7.05 18.5749L5.1375 21.8999L6.8625 22.8999L8.7875 19.5749L9.7125 23.0374L11.6375 22.5249L10.2 17.1249L12 13.9999L13.8125 17.1249L12.3625 22.5249L14.3 23.0374L15.225 19.5749L17.1375 22.8999L18.8625 21.8999L16.95 18.5749L20.4125 19.5124L20.9375 17.5749L15.5375 16.1249L13.7375 12.9999H17.35L21.3 16.9499L22.7125 15.5374L20.175 12.9999H24V10.9999Z" fill="#00AAFF"/>
</svg>
