<svg xmlns="http://www.w3.org/2000/svg" viewBox="0 0 24 25" >
  <path d="M21.0002 9.49991H19.5802L15.8682 3.00391L14.1322 3.99591L17.2772 9.49991H6.72322L9.86922 3.99591L8.13222 3.00391L4.42022 9.49991H3.00022C2.68822 9.49991 2.39522 9.64591 2.20522 9.89291C2.01622 10.1409 1.95322 10.4629 2.03522 10.7629L4.83422 21.0269C5.07122 21.8949 5.86522 22.4999 6.76422 22.4999H17.2372C18.1352 22.4999 18.9292 21.8949 19.1672 21.0249L21.9662 10.7619C22.0482 10.4619 21.9862 10.1399 21.7962 9.89191C21.6052 9.64591 21.3122 9.49991 21.0002 9.49991ZM17.2362 20.4999H6.76422L4.31022 11.4999H19.6902L17.2362 20.4999Z" />
  <path d="M9.00022 13.4999H11.0002V18.4999H9.00022V13.4999ZM13.0002 13.4999H15.0002V18.4999H13.0002V13.4999Z" fill="#141414"/>
</svg>
