<svg xmlns="http://www.w3.org/2000/svg" viewBox="0 0 16 16" fill="none">
  <path d="M1.34961 14.1328C1.34961 14.4316 1.5957 14.6836 1.90039 14.6836H11.668C11.9668 14.6836 12.2129 14.4316 12.2129 14.1328C12.2129 13.834 11.9668 13.582 11.668 13.582H11.2168V9.79102C11.5566 9.84375 11.7734 10.0781 11.7734 10.4414V11.4082C11.7734 12.2871 12.3594 12.873 13.2383 12.873C14.0879 12.873 14.6504 12.2871 14.6504 11.4082V5.34961C14.6504 4.58203 14.5156 3.94336 14.2344 3.44531C13.9531 2.9707 13.543 2.64844 13.0039 2.48438C12.7578 2.4082 12.4941 2.55469 12.418 2.79492C12.3477 3.04688 12.4824 3.31641 12.7402 3.38672C13.0449 3.46875 13.4727 3.71484 13.6426 4.54688H12.8633C12.5762 4.54688 12.3535 4.76953 12.3535 5.05664V7.38281C12.3535 7.66406 12.582 7.88672 12.8633 7.88672H13.7129V11.4082C13.7129 11.7188 13.5254 11.9238 13.2383 11.9238C12.916 11.9238 12.7051 11.7188 12.7051 11.4082V10.4297C12.7051 9.48047 12.1543 8.89453 11.2168 8.8418V2.45508C11.2168 1.41797 10.6602 0.861328 9.61719 0.861328H3.94531C2.9082 0.861328 2.35156 1.41797 2.35156 2.45508V13.582H1.90039C1.60156 13.582 1.34961 13.834 1.34961 14.1328ZM3.44727 2.49609C3.44727 2.14453 3.63477 1.95703 3.98633 1.95703H9.57617C9.92188 1.95703 10.1094 2.14453 10.1094 2.49609V13.582H3.44727V2.49609ZM4.84766 7.71094H8.7207C9.10742 7.71094 9.36523 7.4707 9.36523 7.11914V3.38086C9.36523 3.0293 9.10742 2.78906 8.7207 2.78906H4.84766C4.46094 2.78906 4.19727 3.0293 4.19727 3.38086V7.11914C4.19727 7.4707 4.46094 7.71094 4.84766 7.71094Z" fill="white"/>
</svg>
