<svg xmlns="http://www.w3.org/2000/svg" viewBox="0 0 21 21">
  <path d="M3.2998 11.3334H4.13313V13V17.1667C4.13313 18.0859 4.88063 18.8334 5.7998 18.8334H8.2998H13.2998H15.7998C16.719 18.8334 17.4665 18.0859 17.4665 17.1667V13V11.3334H18.2998C18.6365 11.3334 18.9415 11.13 19.0698 10.8192C19.199 10.5075 19.1273 10.1492 18.889 9.91088L11.389 2.41088C11.0631 2.08505 10.5365 2.08505 10.2106 2.41088L2.71063 9.91088C2.4723 10.1492 2.40063 10.5075 2.5298 10.8192C2.65813 11.13 2.96313 11.3334 3.2998 11.3334ZM9.13313 17.1667V13H12.4665V17.1667H9.13313ZM10.7998 4.17838L15.7998 9.17838V13L15.8006 17.1667H14.1331V13C14.1331 12.0809 13.3856 11.3334 12.4665 11.3334H9.13313C8.21397 11.3334 7.46647 12.0809 7.46647 13V17.1667H5.7998V13V10.5V9.17838L10.7998 4.17838Z" />
</svg>
