<svg xmlns="http://www.w3.org/2000/svg" viewBox="0 0 16 16" fill="none">
  <path d="M5.3335 8.6665H6.66683V11.3332H5.3335V8.6665ZM5.3335 11.9998H6.66683V13.3332H5.3335V11.9998ZM7.3335 9.99984H8.66683V12.6665H7.3335V9.99984ZM7.3335 13.3332H8.66683V14.6665H7.3335V13.3332ZM9.3335 8.6665H10.6668V11.3332H9.3335V8.6665ZM9.3335 11.9998H10.6668V13.3332H9.3335V11.9998Z" fill="white"/>
  <path d="M12.6295 6.74117C12.3382 4.4465 10.3735 2.6665 8.00016 2.6665C6.16283 2.6665 4.56683 3.7405 3.83816 5.43317C2.40616 5.86117 1.3335 7.2125 1.3335 8.6665C1.3335 10.5045 2.82883 11.9998 4.66683 11.9998V10.6665C3.56416 10.6665 2.66683 9.76917 2.66683 8.6665C2.66683 7.73117 3.46616 6.82917 4.44883 6.6565L4.83616 6.58784L4.96416 6.21517C5.43283 4.8485 6.59683 3.99984 8.00016 3.99984C9.83816 3.99984 11.3335 5.49517 11.3335 7.33317V7.99984H12.0002C12.7355 7.99984 13.3335 8.59784 13.3335 9.33317C13.3335 10.0685 12.7355 10.6665 12.0002 10.6665H11.3335V11.9998H12.0002C13.4708 11.9998 14.6668 10.8038 14.6668 9.33317C14.6668 8.07917 13.7968 7.02517 12.6295 6.74117Z" fill="white"/>
</svg>
