<svg xmlns="http://www.w3.org/2000/svg" viewBox="0 0 288 144" >
  <path fill-rule="evenodd" clip-rule="evenodd" d="M136.21 -140.534C140.375 -145.155 147.625 -145.155 151.79 -140.534C152.004 -140.297 152.307 -140.164 152.625 -140.145C156.763 -139.897 160.853 -139.471 164.888 -138.876C165.193 -138.831 165.506 -138.896 165.756 -139.078C170.784 -142.728 177.883 -141.234 180.99 -135.853C181.135 -135.602 181.379 -135.426 181.658 -135.349C185.682 -134.244 189.634 -132.965 193.506 -131.522C193.779 -131.421 194.081 -131.42 194.348 -131.539C200.015 -134.064 206.66 -131.138 208.574 -125.235C208.665 -124.953 208.872 -124.725 209.135 -124.589C212.806 -122.686 216.382 -120.627 219.854 -118.421C220.117 -118.254 220.433 -118.186 220.738 -118.251C226.799 -119.546 232.698 -115.308 233.336 -109.144C233.369 -108.824 233.537 -108.536 233.785 -108.332C236.943 -105.74 239.984 -103.013 242.902 -100.162C243.136 -99.933 243.446 -99.7941 243.773 -99.7948C249.966 -99.8079 254.858 -94.4385 254.194 -88.2808C254.16 -87.9623 254.264 -87.6467 254.464 -87.3967C257.02 -84.2043 259.438 -80.8986 261.711 -77.4884C261.883 -77.2306 262.143 -77.0416 262.446 -76.9781C268.508 -75.7099 272.171 -69.4411 270.236 -63.5588C270.144 -63.2782 270.176 -62.9734 270.309 -62.7095C272.159 -59.0291 273.851 -55.2564 275.377 -51.4004C275.482 -51.1342 275.681 -50.9138 275.943 -50.7984C281.613 -48.3017 283.881 -41.4098 280.76 -36.0584C280.613 -35.8073 280.582 -35.5073 280.655 -35.226C281.684 -31.2624 282.544 -27.2308 283.226 -23.1396C283.275 -22.8441 283.431 -22.5748 283.674 -22.3998C288.707 -18.7782 289.477 -11.5706 285.306 -6.98212C285.091 -6.74541 284.989 -6.42953 285.003 -6.10994C285.09 -4.08412 285.134 -2.0472 285.134 -3.05176e-05C285.134 2.04718 285.09 4.08418 285.003 6.11003C284.989 6.4296 285.091 6.74547 285.306 6.98213C289.477 11.5706 288.707 18.7782 283.674 22.3998C283.431 22.5748 283.275 22.8441 283.226 23.1396C282.544 27.2309 281.684 31.2623 280.655 35.226C280.582 35.5073 280.614 35.8073 280.76 36.0584C283.881 41.4099 281.613 48.3017 275.943 50.7985C275.681 50.9139 275.482 51.1342 275.377 51.4005C273.851 55.2564 272.159 59.029 270.309 62.7095C270.176 62.9734 270.144 63.2782 270.236 63.5588C272.171 69.4411 268.508 75.7099 262.446 76.9781C262.143 77.0416 261.883 77.2306 261.711 77.4885C259.438 80.8986 257.02 84.2043 254.464 87.3966C254.264 87.6467 254.16 87.9623 254.194 88.2808C254.858 94.4385 249.966 99.8079 243.773 99.7948C243.446 99.7941 243.136 99.933 242.902 100.162C239.984 103.013 236.943 105.74 233.785 108.332C233.537 108.536 233.369 108.824 233.336 109.144C232.698 115.308 226.799 119.546 220.738 118.251C220.433 118.186 220.117 118.254 219.854 118.421C216.381 120.627 212.806 122.686 209.135 124.589C208.872 124.725 208.665 124.953 208.574 125.235C206.66 131.138 200.015 134.064 194.348 131.539C194.081 131.42 193.779 131.421 193.505 131.522C189.634 132.965 185.682 134.244 181.658 135.349C181.379 135.426 181.135 135.602 180.99 135.853C177.882 141.234 170.784 142.728 165.756 139.078C165.506 138.896 165.193 138.831 164.888 138.876C160.853 139.471 156.763 139.897 152.625 140.145C152.307 140.164 152.004 140.297 151.79 140.534C147.625 145.155 140.375 145.155 136.21 140.534C135.996 140.297 135.693 140.164 135.375 140.145C131.237 139.897 127.147 139.471 123.112 138.876C122.807 138.831 122.494 138.896 122.244 139.078C117.216 142.728 110.118 141.234 107.01 135.853C106.865 135.602 106.621 135.426 106.342 135.349C102.318 134.244 98.3658 132.965 94.4945 131.522C94.2212 131.421 93.9189 131.42 93.6525 131.539C87.9846 134.064 81.3403 131.138 79.4265 125.235C79.335 124.953 79.1284 124.725 78.8651 124.589C75.1945 122.686 71.6185 120.627 68.1459 118.421C67.8829 118.254 67.567 118.186 67.2623 118.251C61.2014 119.546 55.3021 115.308 54.6641 109.144C54.6311 108.824 54.4629 108.536 54.2147 108.333C51.0574 105.74 48.0155 103.013 45.0976 100.162C44.8637 99.933 44.5542 99.7941 44.2272 99.7948C38.0339 99.8079 33.142 94.4385 33.8059 88.2808C33.8403 87.9624 33.7359 87.6469 33.5358 87.3969C30.9802 84.2044 28.5615 80.8986 26.2886 77.4884C26.1167 77.2306 25.8568 77.0415 25.5536 76.9781C19.4925 75.7099 15.8289 69.4411 17.764 63.5588C17.8563 63.2783 17.8237 62.9736 17.691 62.7097C15.841 59.0291 14.1488 55.2564 12.6231 51.4003C12.5178 51.1341 12.3188 50.9138 12.0569 50.7985C6.38731 48.3017 4.11901 41.4099 7.24005 36.0584C7.38645 35.8074 7.41797 35.5075 7.34492 35.2262C6.31544 31.2624 5.45563 27.2308 4.77363 23.1393C4.7244 22.844 4.56917 22.5747 4.3261 22.3998C-0.707143 18.7782 -1.47675 11.5706 2.69408 6.98213C2.90916 6.74551 3.01103 6.42973 2.99728 6.11026C2.91008 4.08434 2.86603 2.04726 2.86603 -3.05176e-05C2.86603 -2.0473 2.91008 -4.08434 2.99728 -6.11026C3.01103 -6.42973 2.90916 -6.7455 2.69408 -6.98212C-1.47675 -11.5706 -0.707142 -18.7782 4.3261 -22.3998C4.56917 -22.5747 4.72438 -22.8439 4.77362 -23.1393C5.45561 -27.2308 6.31543 -31.2624 7.34491 -35.2262C7.41796 -35.5075 7.38645 -35.8074 7.24005 -36.0584C4.11901 -41.4098 6.3873 -48.3017 12.0569 -50.7984C12.3188 -50.9138 12.5178 -51.1341 12.6231 -51.4002C14.1488 -55.2564 15.841 -59.0291 17.691 -62.7098C17.8236 -62.9736 17.8563 -63.2783 17.764 -63.5588C15.8289 -69.4411 19.4925 -75.7099 25.5536 -76.9781C25.8568 -77.0415 26.1167 -77.2305 26.2885 -77.4883C28.5615 -80.8986 30.9802 -84.2044 33.5358 -87.3969C33.7359 -87.6469 33.8403 -87.9624 33.8059 -88.2808C33.142 -94.4385 38.0339 -99.8079 44.2272 -99.7948C44.5542 -99.7941 44.8636 -99.9329 45.0975 -100.161C48.0154 -103.013 51.0574 -105.74 54.2147 -108.333C54.4629 -108.536 54.6311 -108.824 54.6641 -109.144C55.3021 -115.308 61.2014 -119.546 67.2623 -118.251C67.5669 -118.186 67.8828 -118.254 68.1458 -118.421C71.6184 -120.627 75.1945 -122.686 78.8652 -124.589C79.1285 -124.725 79.335 -124.953 79.4265 -125.235C81.3403 -131.138 87.9846 -134.064 93.6525 -131.539C93.9188 -131.42 94.2212 -131.421 94.4944 -131.522C98.3658 -132.965 102.318 -134.244 106.342 -135.349C106.621 -135.426 106.865 -135.602 107.01 -135.853C110.118 -141.234 117.216 -142.728 122.244 -139.078C122.494 -138.896 122.807 -138.831 123.112 -138.876C127.147 -139.471 131.237 -139.897 135.375 -140.145C135.693 -140.164 135.996 -140.297 136.21 -140.534ZM216.527 -3.05176e-05C216.527 39.8481 184.056 72.1514 144 72.1514C103.944 72.1514 71.4728 39.8481 71.4728 -3.05176e-05C71.4728 -39.8481 103.944 -72.1514 144 -72.1514C184.056 -72.1514 216.527 -39.8481 216.527 -3.05176e-05Z" fill="url(#paint0_linear_179_5678)"/>
  <defs>
    <linearGradient id="paint0_linear_179_5678" x1="144" y1="-140.409" x2="144" y2="140.409" gradientUnits="userSpaceOnUse">
      <stop stop-color="#242424"/>
      <stop offset="1" stop-color="#141414"/>
    </linearGradient>
  </defs>
</svg>
