<svg width="216" height="48" viewBox="0 0 216 48" fill="none" xmlns="http://www.w3.org/2000/svg">
<rect width="48" height="48" rx="8" fill="#D42111"/>
<path d="M29.9453 19.2702L34.2682 21.7846L41 19.968V12.624L25.6445 16.7668L7.121 6V10.0985L23.7965 19.7908L25.7214 27.0462L41 35.9298V27.744L27.5474 19.9237L29.9453 19.2702Z" fill="white"/>
<path d="M18.0547 28.7298L13.7428 26.2154L7 28.0431V35.376L22.3555 31.2332L40.89 42V37.9126L24.2145 28.2203L22.2786 20.9538L7 12.0702V20.256L20.4526 28.0763L18.0547 28.7298Z" fill="white"/>
<path d="M59.3086 33L66.4453 24.4805L62.8828 16.0898H68.2031L70.1836 20.9297H70.2773L73.875 16.0898H79.6172L72.4219 24.5742L76.0078 33H70.6992L68.6719 28.0781H68.5781L64.9102 33H59.3086ZM87.375 19.7578C85.1016 19.7578 83.168 22.4648 83.168 25.793C83.168 27.9375 84.2812 29.332 85.9922 29.332C88.2656 29.332 90.2109 26.6367 90.2109 23.2852C90.2109 21.1289 89.0859 19.7578 87.375 19.7578ZM85.8398 33.293C81.0117 33.293 78.1289 30.1992 78.1289 26.0977C78.1289 19.8984 82.3008 15.7969 87.4922 15.7969C92.4492 15.7969 95.25 18.9023 95.25 22.9922C95.25 29.2148 91.0195 33.293 85.8398 33.293ZM110.766 33H105.797L107.133 26.6836H107.039C106.066 27.2227 104.848 27.6094 103.113 27.6094C99.2344 27.6094 97.2188 24.6914 98.1094 20.5312L99.0586 16.0898H104.027L103.055 20.6484C102.668 22.4531 103.383 23.4844 105.246 23.4844C106.395 23.4844 107.367 23.1914 107.977 22.7344L109.395 16.0898H114.363L110.766 33ZM116.977 33.1875C115.91 33.1875 115.148 33 115.148 33L115.969 29.1328C115.969 29.1328 116.297 29.25 117.023 29.25C117.75 29.25 118.477 29.0508 118.992 28.5469L116.25 16.0898H121.453L122.531 23.9297H122.766L126.996 16.0898H132.316L124.57 28.1602C122.555 31.3008 120.539 33.1875 116.977 33.1875ZM135.316 33L138.914 16.0898H143.883L141.117 29.0625H144.609L147.375 16.0898H152.344L149.578 29.0625H153.07L155.836 16.0898H160.805L157.207 33H135.316ZM171.012 33L173.062 23.4141H172.828L164.59 33H159.855L163.453 16.0898H168.305L166.254 25.6758H166.488L174.727 16.0898H179.461L175.863 33H171.012ZM194.402 33H189.316L190.723 26.4141H185.004L183.598 33H178.512L182.109 16.0898H187.195L185.812 22.5469H191.531L192.914 16.0898H198L194.402 33ZM200.602 33.1875C199.535 33.1875 198.773 33 198.773 33L199.594 29.1328C199.594 29.1328 199.922 29.25 200.648 29.25C201.375 29.25 202.102 29.0508 202.617 28.5469L199.875 16.0898H205.078L206.156 23.9297H206.391L210.621 16.0898H215.941L208.195 28.1602C206.18 31.3008 204.164 33.1875 200.602 33.1875Z" fill="#141414"/>
</svg>
