<svg viewBox="0 0 39 24" fill="none" xmlns="http://www.w3.org/2000/svg">
<rect x="0.303192" width="38.3032" height="24" rx="4" fill="white"/>
<path d="M19.3103 7.17968L17.3278 16.8523H14.9286L16.9141 7.17968H19.3103ZM29.4029 13.425L30.6648 9.79223L31.3923 13.425H29.4029ZM32.0782 16.8523H34.2973L32.3613 7.17968H30.3135C30.3105 7.17968 30.3066 7.17968 30.3036 7.17968C29.8493 7.17968 29.4593 7.46985 29.295 7.88187L29.292 7.8891L25.6943 16.8523H28.2122L28.713 15.4066H31.7902L32.0782 16.8523ZM25.818 13.6945C25.8279 11.1409 22.434 11.0004 22.4577 9.85935C22.4657 9.51239 22.7814 9.14271 23.4742 9.04874C23.6029 9.03532 23.7514 9.02705 23.9018 9.02705C24.6055 9.02705 25.2726 9.19434 25.8665 9.4938L25.8398 9.48141L26.2604 7.42957C25.5943 7.16006 24.8233 7.0031 24.0176 7H24.0166C21.6451 7 19.9774 8.3166 19.9625 10.1991C19.9477 11.5911 21.1532 12.3666 22.0628 12.8313C22.9981 13.3052 23.3119 13.6099 23.3069 14.0322C23.301 14.6828 22.5626 14.9678 21.8718 14.9791C21.8401 14.9802 21.8015 14.9802 21.7639 14.9802C20.9018 14.9802 20.0902 14.754 19.3815 14.3544L19.4083 14.3678L18.9738 16.4868C19.7517 16.8121 20.6534 17 21.5976 17C21.6125 17 21.6273 17 21.6422 17H21.6402C24.1601 17 25.8081 15.702 25.817 13.6914L25.818 13.6945ZM15.8827 7.17968L11.9969 16.8523H9.46115L7.54893 9.13135C7.51231 8.75547 7.29159 8.44155 6.98477 8.28459L6.97883 8.2815C6.29787 7.93247 5.50606 7.64849 4.67763 7.46985L4.6123 7.45849L4.66971 7.17865H8.75149C9.30774 7.17865 9.76996 7.60306 9.85607 8.15758L9.85706 8.16377L10.8676 13.7617L13.3638 7.17761L15.8827 7.17968Z" fill="#193BC8"/>
</svg>
