<svg xmlns="http://www.w3.org/2000/svg" viewBox="0 0 360 382" fill="none">
  <path fill-rule="evenodd" clip-rule="evenodd" d="M-254.079 315.073L-223.518 262.349L-231.461 233.028L-326.509 397.52L-426 397.52L-318.028 210.701L-229.711 187.029L-111.911 -16.8717L-111.55 -16.8717L-111.911 -18.2167L46.9508 -18.2167L34.565 3.30311L-16.9794 3.30311L-0.573135 64.097L-31.1339 116.955L-23.1908 146.276L71.8571 -18.2167L171.348 -18.2167L63.3755 168.603L-24.9409 192.141L-142.741 396.041L-143.138 396.041L-142.741 397.52L-301.603 397.52L-289.217 376.001L-237.663 376.001L-254.079 315.073ZM-193.092 209.759L-95.9099 41.4522L-61.5599 169.544L-158.761 337.783L-193.092 209.759Z" fill="#A50D0D"/>
  <path fill-rule="evenodd" clip-rule="evenodd" d="M53.2784 315.073L83.8391 262.349L75.896 233.028L-19.1519 397.52L-118.643 397.52L-10.6703 210.701L77.5115 187.029L195.446 -16.8717L284.571 -16.8717L306.65 65.5766L276.224 118.435L284.167 147.621L379.215 -16.8717L478.705 -16.8717L370.733 169.948L282.417 193.619L164.616 397.52L5.75446 397.52L18.1403 376L69.5947 376L53.2784 315.073ZM114.265 209.759L211.194 41.8922L245.797 171.024L148.836 338.676L114.265 209.759Z" fill="#A50D0D"/>
  <path fill-rule="evenodd" clip-rule="evenodd" d="M360.636 316.552L391.197 263.694L383.253 234.508L288.206 399L188.715 399L296.687 212.181L384.869 188.509L502.669 -15.3922L591.928 -15.3922L614.007 67.0562L583.446 119.914L591.389 149.101L686.437 -15.3922L785.928 -15.3922L677.956 171.427L589.774 195.099L471.974 399L382.715 399L360.636 316.552ZM421.488 211.104L518.47 43.4158L553.155 172.503L456.173 340.192L421.488 211.104Z" fill="#A50D0D"/>
</svg>
