<svg xmlns="http://www.w3.org/2000/svg" viewBox="0 0 16 16" fill="none">
  <path d="M11.4667 5.99939C10.725 4.71605 9.38334 3.99939 8 3.99939C7.325 3.99939 6.63333 4.17439 6 4.53272C4.08333 5.64105 3.43334 8.09105 4.53334 9.99939C5.275 11.2827 6.61667 11.9994 8 11.9994C8.675 11.9994 9.36667 11.8244 10 11.4661C11.9167 10.3577 12.5667 7.91605 11.4667 5.99939Z" fill="#FFD400"/>
  <path d="M4.57689 0.739448L3.42222 1.40611L5.08889 4.29278L6.24355 3.62611L4.57689 0.739448Z" fill="#FFD400"/>
  <path d="M10.9087 11.7063L9.754 12.3729L11.4207 15.2596L12.5753 14.5929L10.9087 11.7063Z" fill="#FFD400"/>
  <path d="M3.33333 7.33272H0V8.66605H3.33333V7.33272Z" fill="#FFD400"/>
  <path d="M16 7.33272H12.6667V8.66605H16V7.33272Z" fill="#FFD400"/>
  <path d="M11.4217 0.739258L9.75537 3.62626L10.9102 4.29279L12.5765 1.40579L11.4217 0.739258Z" fill="#FFD400"/>
  <path d="M5.08644 11.7073L3.4201 14.5943L4.57491 15.2608L6.24124 12.3738L5.08644 11.7073Z" fill="#FFD400"/>
</svg>
