<svg width="360" height="800" viewBox="0 0 360 800" fill="none" xmlns="http://www.w3.org/2000/svg">
<path fill-rule="evenodd" clip-rule="evenodd" d="M-665.933 642.457L-606.371 539.718L-621.852 482.583L-807.097 803.117L-1001 803.117L-790.566 439.076L-618.441 392.948L-388.853 -4.379L-388.15 -4.379L-388.853 -6.99991L-79.2376 -6.99992L-103.377 34.9342L-203.835 34.9342L-171.86 153.399L-231.422 256.399L-215.941 313.535L-30.6962 -6.99993L163.207 -6.99993L-47.2265 357.042L-219.352 402.908L-448.94 800.234L-449.713 800.234L-448.94 803.117L-758.555 803.117L-734.416 761.183L-633.939 761.183L-665.933 642.457ZM-547.072 437.241L-357.667 109.273L-290.721 358.876L-480.161 686.711L-547.072 437.241Z" stroke="#242424" stroke-width="2" stroke-linejoin="round"/>
<path fill-rule="evenodd" clip-rule="evenodd" d="M-66.9054 642.457L-7.3437 539.718L-22.8245 482.583L-208.069 803.117L-401.973 803.117L-191.539 439.076L-19.6759 392.948L210.174 -4.37903L383.874 -4.37904L426.905 156.282L367.606 259.282L383.087 316.156L568.331 -4.37905L762.235 -4.37905L551.801 359.663L379.676 405.79L150.088 803.117L-159.528 803.117L-135.388 761.183L-35.1056 761.183L-66.9054 642.457ZM51.9555 437.241L240.865 110.13L308.307 361.759L119.333 688.45L51.9555 437.241Z" stroke="#242424" stroke-width="2" stroke-linejoin="round"/>
<path fill-rule="evenodd" clip-rule="evenodd" d="M532.122 645.34L591.684 542.338L576.203 485.466L390.958 806L197.055 806L407.489 441.959L579.352 395.831L808.939 -1.4959L982.902 -1.49591L1025.93 159.165L966.371 262.166L981.852 319.039L1167.1 -1.49592L1361 -1.49592L1150.57 362.545L978.703 408.673L749.116 806L575.154 806L532.122 645.34ZM650.721 439.861L839.735 113.099L907.334 364.643L718.32 691.405L650.721 439.861Z" stroke="#242424" stroke-width="2" stroke-linejoin="round"/>
</svg>
