<svg width="1920" height="961" viewBox="0 0 1920 961" fill="none" xmlns="http://www.w3.org/2000/svg">
<path d="M-1649.19 163.795L-1724.03 293.379L-1704.58 365.261L-1471.81 -37.9998L-1228.17 -37.9998L-1492.58 419.996L-1708.53 477.699L-1997.01 977.568L-2119 977.568L-1798.54 422.303L-1921.84 -37.9997L-1532.48 -37.9998L-1563.14 14.757L-1689.12 14.757L-1649.19 163.795Z" stroke="#242424" stroke-width="2" stroke-linejoin="round"/>
<path fill-rule="evenodd" clip-rule="evenodd" d="M-1517.31 779.071L-1442.47 649.817L-1461.92 577.936L-1694.68 981.195L-1938.33 981.195L-1673.91 523.201L-1457.64 465.168L-1169.15 -34.7024L-1168.27 -34.7024L-1169.15 -37.9998L-780.116 -37.9998L-810.447 14.7569L-936.675 14.7569L-896.497 163.795L-971.338 293.379L-951.886 365.261L-719.123 -37.9998L-475.479 -37.9998L-739.893 419.996L-956.172 477.699L-1244.65 977.568L-1245.63 977.568L-1244.65 981.195L-1633.69 981.195L-1603.36 928.438L-1477.11 928.438L-1517.31 779.071ZM-1367.96 520.892L-1129.97 108.281L-1045.85 422.303L-1283.88 834.747L-1367.96 520.892Z" stroke="#242424" stroke-width="2" stroke-linejoin="round"/>
<path fill-rule="evenodd" clip-rule="evenodd" d="M-764.62 779.071L-689.78 649.817L-709.232 577.936L-941.995 981.195L-1185.64 981.195L-921.225 523.201L-705.275 465.168L-416.464 -34.7025L-198.207 -34.7025L-144.138 167.423L-218.648 297.006L-199.196 368.558L33.5672 -34.7025L277.211 -34.7025L12.7964 423.293L-203.482 481.324L-491.964 981.195L-881.002 981.195L-850.67 928.438L-724.663 928.438L-764.62 779.071ZM-615.269 520.892L-377.901 109.359L-293.159 425.93L-530.608 836.935L-615.269 520.892Z" stroke="#242424" stroke-width="2" stroke-linejoin="round"/>
<path fill-rule="evenodd" clip-rule="evenodd" d="M-11.9305 782.699L62.91 653.114L43.458 581.563L-189.305 984.822L-432.949 984.822L-168.535 526.828L47.4142 468.795L335.896 -31.0752L554.483 -31.0752L608.552 171.05L533.712 300.633L553.164 372.185L785.927 -31.0753L1029.57 -31.0753L765.157 426.919L549.208 484.952L260.726 984.822L42.1393 984.822L-11.9305 782.699ZM137.091 524.189L374.591 113.095L459.531 429.558L222.031 840.652L137.091 524.189Z" stroke="#242424" stroke-width="2" stroke-linejoin="round"/>
<path fill-rule="evenodd" clip-rule="evenodd" d="M740.759 786.324L815.27 656.741L795.818 584.861L563.055 988.119L319.411 988.119L583.826 530.125L800.104 472.423L1088.59 -27.4479L1307.17 -27.4479L1361.24 174.347L1286.4 303.93L1305.85 375.811L1538.62 -27.4479L1782.26 -27.4479L1517.85 430.546L1301.57 488.579L1013.09 988.119L794.829 988.119L740.759 786.324ZM889.78 527.817L1127.23 116.812L1211.89 432.855L974.519 844.149L889.78 527.817Z" stroke="#242424" stroke-width="2" stroke-linejoin="round"/>
<path fill-rule="evenodd" clip-rule="evenodd" d="M1493.12 789.952L1567.96 660.368L1548.51 588.486L1315.74 991.747L1072.1 991.747L1336.51 533.753L1552.79 475.72L1841.28 -23.8205L2059.53 -23.8205L2113.6 177.973L2039.09 307.558L2058.54 379.438L2291.31 -23.8205L2534.95 -23.8206L2270.54 434.174L2054.26 491.876L1765.78 991.747L1547.19 991.747L1493.12 789.952ZM1642.47 531.444L1879.84 120.15L1964.58 436.482L1727.21 847.777L1642.47 531.444Z" stroke="#242424" stroke-width="2" stroke-linejoin="round"/>
<path fill-rule="evenodd" clip-rule="evenodd" d="M2245.81 793.249L2320.65 663.996L2301.2 592.114L2068.43 995.374L1824.79 995.374L2089.2 537.378L2305.15 479.347L2593.64 -20.5233L2812.22 -20.5234L2866.29 181.6L2791.45 311.185L2810.9 382.735L3044 -20.5234L3287.64 -20.5234L3023.23 437.471L2806.95 495.504L2518.46 995.374L2299.88 995.374L2245.81 793.249ZM2395.16 535.071L2632.37 123.806L2717.27 440.108L2479.82 851.114L2395.16 535.071Z" stroke="#242424" stroke-width="2" stroke-linejoin="round"/>
<path fill-rule="evenodd" clip-rule="evenodd" d="M2998.5 796.876L3073.34 667.293L3053.56 595.741L2820.79 999L2577.15 999L2841.56 541.006L3057.84 482.973L3346.32 -16.896L3564.91 -16.896L3618.98 185.228L3544.14 314.811L3563.59 386.363L3796.36 -16.896L4040 -16.896L3775.59 441.098L3559.64 499.131L3270.83 999L3052.57 999L2998.5 796.876ZM3147.52 538.368L3384.95 127.396L3469.63 443.735L3232.28 854.997L3147.52 538.368Z" stroke="#242424" stroke-width="2" stroke-linejoin="round"/>
</svg>
